<svg width="224" height="112" viewBox="0 0 224 112" fill="none" xmlns="http://www.w3.org/2000/svg">
<path d="M207.607 95.0413C188.74 87.8172 169.905 80.567 150.96 73.5123C149.651 73.0152 147.44 73.7247 146.161 74.5941C115.777 95.523 83.4899 98.1397 49.9397 83.6397C44.3622 81.2295 39.4819 77.0277 35.5207 71.1767C30.2783 63.4686 32.3391 54.2675 40.1779 49.1875C47.0295 44.7416 54.7182 43.7942 62.5851 43.6661C80.0044 43.4438 96.8698 47.2512 113.555 51.6317C124.131 54.4041 134.521 57.8083 145.319 60.99C147.388 56.383 146.386 50.022 143.03 46.5183C136.698 39.8481 132.332 37.7465 125.852 34.0832C105.521 22.5818 83.2473 16.4417 60.2615 13.603C43.1539 11.4883 25.9135 10.6038 8.72997 9.19205C7.2329 9.05996 5.6907 9.07117 4.291 8.8607C2.10357 8.5355 0.630176 7.63548 0.474854 5.78138C0.0139533 4.01281 2.51557 2.80133 3.9065 2.27C6.19438 1.39105 8.73088 0.953846 11.1645 0.920399C49.5482 0.0290096 87.0693 4.3786 122.304 20.8387C130.033 24.4592 137.303 29.3045 144.126 34.457C153.903 41.8845 158.598 51.6376 154.114 64.3404C171.824 71.8544 189.28 79.252 207.048 86.7723C203.129 81.9038 199.418 77.2949 195.682 72.6536C195.055 71.8747 194.331 71.1741 193.768 70.3429C192.232 68.1025 189.563 65.6509 192.458 63.0002C195.287 60.4016 197.592 63.1992 199.114 65.0231C206.892 74.2202 214.599 83.5282 221.923 93.091C224.909 96.9993 223.867 100.887 219.172 102.099C205.622 105.732 191.842 108.748 178.101 111.679C176.827 111.956 174.099 111.425 173.518 108.843C173.265 106.801 175.498 105.056 176.908 104.616C185.431 101.981 194.092 99.7157 202.733 97.3597C204.261 96.9321 205.841 96.5694 207.395 96.1742C210.089 95.9318 209.086 95.616 207.607 95.0413ZM139.309 70.2681C140.556 69.4249 137.619 68.9003 137.189 68.7649C114.692 61.682 92.027 55.3219 68.343 54.0081C62.0104 53.65 55.3817 54.386 49.2242 55.973C41.0511 58.1128 39.6076 64.8912 46.0602 70.4483C50.2358 74.0406 55.1587 77.2988 60.3183 79.1896C82.2009 87.3026 110.351 85.1279 125.797 77.9359C131.671 75.1328 133.034 74.0354 139.309 70.2681Z" fill="#050E01"/>
</svg>
