<svg width="77" height="79" viewBox="0 0 77 79" fill="none" xmlns="http://www.w3.org/2000/svg">
<path fill-rule="evenodd" clip-rule="evenodd" d="M17.5859 7.54289C20.816 5.47225 23.9958 3.85113 26.6219 2.9019C28.8671 2.09221 33.39 1.04409 36.6348 0.565538C40.0978 0.0577864 44.3828 -0.117189 46.8966 0.0777256C49.2606 0.31483 52.7071 1.00479 54.5827 1.57293C56.4858 2.18165 59.5562 3.54188 61.422 4.53199C63.247 5.54968 65.9136 7.53957 67.2909 8.86071C68.6682 10.1819 70.6137 12.4233 71.5545 13.8028C72.5232 15.2229 73.9817 17.9723 74.8185 19.8971C75.6421 21.8902 76.5586 25.0662 76.8222 27.0236C77.1264 28.9532 77.022 32.4652 76.6475 34.7956C76.2729 37.1263 75.2014 40.8784 74.2797 43.105C73.3043 45.4273 71.6109 48.355 70.3148 49.9454C68.6948 51.9333 67.4622 53.0061 63.996 54.6433L64.4174 57.443C64.6226 58.9653 64.5783 61.6057 64.2527 63.3098C63.9268 65.0138 62.927 67.6494 62.0266 69.2089C60.9373 71.0152 59.4378 72.7436 57.6761 74.1748C56.1586 75.4406 53.9867 76.794 52.5311 77.3652C51.2254 77.8942 48.8288 78.5691 47.2886 78.8417C45.7615 79.0461 42.9222 79.0719 40.9537 78.804C38.7803 78.4971 36.3838 77.6887 34.6273 76.6841C32.6101 75.5593 31.1237 74.2527 29.6049 72.3749C28.169 70.6187 27.1695 68.8042 26.5526 67.027C25.698 64.6397 25.5319 64.3962 24.7 64.4855C24.1953 64.5308 22.3637 64.2889 20.7356 63.9091C19.0669 63.5567 16.2032 62.4125 14.3912 61.3266C12.5792 60.2407 9.91256 58.2507 8.43925 56.8761C6.9936 55.5419 5.07588 53.3412 4.19028 52.0427C3.33238 50.7849 2.26287 48.7806 1.81521 47.6006C1.32686 46.4482 0.698628 43.4329 0.334115 40.8913C-0.217571 37.29 -0.087179 35.1251 0.733648 30.8309C1.43723 27.1501 2.38009 24.2565 3.6013 21.9455C4.63524 20.0581 6.33187 17.4842 7.42603 16.2087C8.4925 14.8925 10.1012 13.1496 10.9804 12.2571C11.8873 11.4051 14.844 9.28248 17.5859 7.54289ZM12.2119 26.018C11.5378 26.9495 10.7725 28.3581 10.4794 29.1502C10.1863 29.9421 9.88829 31.6867 9.80517 33.0483C9.70901 34.4781 10.0557 36.5571 10.6563 38.0486C11.4377 39.8923 12.1719 41.0561 13.4384 42.2148C14.3892 43.1725 15.7502 44.2079 16.491 44.5959C17.2187 45.052 18.8613 45.5405 20.1199 45.815C21.3914 46.0211 23.3987 46.0847 24.571 45.8834C25.9613 45.653 27.6611 44.9164 29.3707 43.7577C31.0396 42.6266 32.4333 41.2668 33.1188 40.0901C33.7375 39.0775 34.4443 37.2338 34.6918 35.9387C34.9393 34.6437 34.9884 32.534 34.7442 31.216C34.443 29.6402 33.7594 28.0269 32.6525 26.404C31.6985 25.0925 30.2235 23.5409 29.372 22.9907C28.5206 22.4406 26.7118 21.7084 25.3297 21.3399C23.9752 21.012 21.8847 20.8269 20.6848 20.9875C19.4848 21.1481 17.3487 21.9431 15.9501 22.7724C14.3481 23.7396 12.9528 24.9225 12.2119 26.018ZM44.2459 26.7341C43.466 28.034 42.7348 30.1909 42.5703 31.6076C42.3782 32.9838 42.4235 34.9704 42.6239 35.962C42.824 36.9536 43.7291 38.8916 44.6423 40.2304C45.5556 41.5694 47.0306 43.121 47.882 43.6713C48.7334 44.2215 50.5699 44.9941 51.9244 45.322C53.3065 45.6906 55.5875 45.8059 57.087 45.561C58.7362 45.2738 60.532 44.5908 61.7938 43.7354C62.8928 42.9906 64.3956 41.6161 65.125 40.7657C65.8806 39.7791 66.6947 37.744 67.1263 35.6715C67.6622 33.0538 67.6216 31.598 66.9478 29.5627C66.4838 28.0972 65.8277 26.5246 65.5233 26.0783C65.2189 25.6319 63.993 24.4455 62.7965 23.4765C61.1458 22.1034 59.8025 21.5304 57.1634 21.0645C55.0714 20.7025 52.8735 20.7087 51.6751 21.0463C50.6137 21.4097 48.7788 22.2974 47.6798 23.0423C46.418 23.8974 45.1204 25.3109 44.2459 26.7341ZM35.9531 66.411C36.6141 68.5144 37.3677 70.3174 37.6152 70.5057C37.8756 70.6258 38.5855 70.6194 39.1846 70.4507C40.1517 70.2105 40.1484 69.8568 39.0074 66.0021C38.358 63.6538 37.6581 61.7549 37.4806 61.7565C37.3031 61.7582 36.6357 61.914 35.955 62.1378C34.8121 62.5565 34.773 62.7609 35.9531 66.411ZM44.2193 61.1646C44.3885 61.7618 44.9517 63.6348 45.4856 65.2902C46.0066 67.0137 46.5926 68.3965 46.7699 68.3949C46.9751 68.4339 47.5873 68.197 48.1718 67.9195C49.1503 67.4343 49.1601 67.0124 48.133 63.6739C47.5275 61.6517 46.8145 59.821 46.5948 59.6733C46.3473 59.485 45.665 59.532 45.0253 59.7284C44.1949 59.9945 43.993 60.3093 44.2193 61.1646ZM52.6609 58.7065C52.7748 59.2225 53.2697 61.0824 53.8052 62.9147C54.8323 66.2532 54.8323 66.2532 55.9232 66.1072C56.5093 66.0066 57.2175 65.8233 57.421 65.6852C57.6246 65.5474 57.2519 63.6046 56.5488 61.3521C55.8324 59.1676 55.1602 57.3092 54.9958 57.2427C54.8313 57.1761 54.2451 57.2767 53.6054 57.4731C52.8841 57.7245 52.6008 58.0946 52.6609 58.7065Z" fill="#2E353D"/>
</svg>
