<svg width="79" height="70" viewBox="0 0 79 70" fill="none" xmlns="http://www.w3.org/2000/svg">
<path d="M53.6307 0.454364C45.6155 1.87787 39.4911 11.3869 39.4911 11.3869C39.4911 11.3869 33.3386 1.87787 25.3516 0.454364C5.56747 -3.04747 -2.58888 14.4333 0.713177 27.4441C5.5957 46.6615 29.077 63.886 36.9229 69.21C38.4751 70.2634 40.5071 70.2634 42.0876 69.21C49.9617 63.886 73.443 46.6615 78.2973 27.4441C81.5711 14.4333 73.4148 -3.04747 53.6307 0.454364Z" fill="#F83BA1"/>
<path d="M53.6307 0.454364C45.6155 1.87787 39.4911 11.3869 39.4911 11.3869C39.4911 11.3869 33.3386 1.87787 25.3516 0.454364C5.56747 -3.04747 -2.58888 14.4333 0.713177 27.4441C5.5957 46.6615 29.077 63.886 36.9229 69.21C38.4751 70.2634 40.5071 70.2634 42.0876 69.21C49.9617 63.886 73.443 46.6615 78.2973 27.4441C81.5711 14.4333 73.4148 -3.04747 53.6307 0.454364Z" fill="#FF3F67"/>
<path d="M53.6307 0.454364C45.6155 1.87787 39.4911 11.3869 39.4911 11.3869C39.4911 11.3869 33.3386 1.87787 25.3516 0.454364C5.56747 -3.04747 -2.58888 14.4333 0.713177 27.4441C5.5957 46.6615 29.077 63.886 36.9229 69.21C38.4751 70.2634 40.5071 70.2634 42.0876 69.21C49.9617 63.886 73.443 46.6615 78.2973 27.4441C81.5711 14.4333 73.4148 -3.04747 53.6307 0.454364Z" fill="url(#paint0_radial_124_1275)"/>
<path d="M53.6307 0.454364C45.6155 1.87787 39.4911 11.3869 39.4911 11.3869C39.4911 11.3869 33.3386 1.87787 25.3516 0.454364C5.56747 -3.04747 -2.58888 14.4333 0.713177 27.4441C5.5957 46.6615 29.077 63.886 36.9229 69.21C38.4751 70.2634 40.5071 70.2634 42.0876 69.21C49.9617 63.886 73.443 46.6615 78.2973 27.4441C81.5711 14.4333 73.4148 -3.04747 53.6307 0.454364Z" fill="url(#paint1_radial_124_1275)"/>
<path d="M53.6307 0.454364C45.6155 1.87787 39.4911 11.3869 39.4911 11.3869C39.4911 11.3869 33.3386 1.87787 25.3516 0.454364C5.56747 -3.04747 -2.58888 14.4333 0.713177 27.4441C5.5957 46.6615 29.077 63.886 36.9229 69.21C38.4751 70.2634 40.5071 70.2634 42.0876 69.21C49.9617 63.886 73.443 46.6615 78.2973 27.4441C81.5711 14.4333 73.4148 -3.04747 53.6307 0.454364Z" fill="url(#paint2_radial_124_1275)"/>
<path d="M53.6307 0.454364C45.6155 1.87787 39.4911 11.3869 39.4911 11.3869C39.4911 11.3869 33.3386 1.87787 25.3516 0.454364C5.56747 -3.04747 -2.58888 14.4333 0.713177 27.4441C5.5957 46.6615 29.077 63.886 36.9229 69.21C38.4751 70.2634 40.5071 70.2634 42.0876 69.21C49.9617 63.886 73.443 46.6615 78.2973 27.4441C81.5711 14.4333 73.4148 -3.04747 53.6307 0.454364Z" fill="url(#paint3_linear_124_1275)"/>
<path d="M53.6307 0.454364C45.6155 1.87787 39.4911 11.3869 39.4911 11.3869C39.4911 11.3869 33.3386 1.87787 25.3516 0.454364C5.56747 -3.04747 -2.58888 14.4333 0.713177 27.4441C5.5957 46.6615 29.077 63.886 36.9229 69.21C38.4751 70.2634 40.5071 70.2634 42.0876 69.21C49.9617 63.886 73.443 46.6615 78.2973 27.4441C81.5711 14.4333 73.4148 -3.04747 53.6307 0.454364Z" fill="url(#paint4_radial_124_1275)"/>
<path d="M53.6307 0.454364C45.6155 1.87787 39.4911 11.3869 39.4911 11.3869C39.4911 11.3869 33.3386 1.87787 25.3516 0.454364C5.56747 -3.04747 -2.58888 14.4333 0.713177 27.4441C5.5957 46.6615 29.077 63.886 36.9229 69.21C38.4751 70.2634 40.5071 70.2634 42.0876 69.21C49.9617 63.886 73.443 46.6615 78.2973 27.4441C81.5711 14.4333 73.4148 -3.04747 53.6307 0.454364Z" fill="url(#paint5_radial_124_1275)"/>
<path d="M39.3788 27.2361V12.2754C41.4345 9.71075 47.442 6.16061 50.1888 4.70613C43.5964 10.7616 40.2353 22.2492 39.3788 27.2361Z" fill="url(#paint6_linear_124_1275)"/>
<path d="M39.3788 27.2361V12.2754C37.3231 9.71075 31.3156 6.16061 28.5688 4.70613C35.1611 10.7616 38.5222 22.2492 39.3788 27.2361Z" fill="url(#paint7_linear_124_1275)"/>
<defs>
<radialGradient id="paint0_radial_124_1275" cx="0" cy="0" r="1" gradientUnits="userSpaceOnUse" gradientTransform="translate(39.5 4.6947) scale(80.2344 25.0379)">
<stop offset="0.195604" stop-color="#D0335A"/>
<stop offset="1" stop-color="#D0335A" stop-opacity="0"/>
</radialGradient>
<radialGradient id="paint1_radial_124_1275" cx="0" cy="0" r="1" gradientUnits="userSpaceOnUse" gradientTransform="translate(20.4554 20.4676) rotate(90) scale(20.3808 20.279)">
<stop offset="0.775701" stop-color="#FF3F67"/>
<stop offset="1" stop-color="#FF3F67" stop-opacity="0"/>
</radialGradient>
<radialGradient id="paint2_radial_124_1275" cx="0" cy="0" r="1" gradientUnits="userSpaceOnUse" gradientTransform="translate(58.8973 19.936) rotate(90) scale(20.2035 20.1027)">
<stop offset="0.775701" stop-color="#FF3F67"/>
<stop offset="1" stop-color="#FF3F67" stop-opacity="0"/>
</radialGradient>
<linearGradient id="paint3_linear_124_1275" x1="39.5" y1="0" x2="39.5" y2="70" gradientUnits="userSpaceOnUse">
<stop offset="0.236696" stop-color="#F83BA1" stop-opacity="0"/>
<stop offset="0.768368" stop-color="#F83BA1"/>
</linearGradient>
<radialGradient id="paint4_radial_124_1275" cx="0" cy="0" r="1" gradientUnits="userSpaceOnUse" gradientTransform="translate(43.0268 17.2776) rotate(65.5457) scale(56.6545 42.8147)">
<stop offset="0.871675" stop-color="#D0335A" stop-opacity="0"/>
<stop offset="1" stop-color="#D0335A"/>
</radialGradient>
<radialGradient id="paint5_radial_124_1275" cx="0" cy="0" r="1" gradientUnits="userSpaceOnUse" gradientTransform="translate(39.5 24.3666) rotate(126.034) scale(52.1588 39.4864)">
<stop offset="0.871675" stop-color="#D0335A" stop-opacity="0"/>
<stop offset="1" stop-color="#D0335A"/>
</radialGradient>
<linearGradient id="paint6_linear_124_1275" x1="7.98387" y1="61.9126" x2="11.4905" y2="17.6239" gradientUnits="userSpaceOnUse">
<stop stop-color="#FE375C"/>
<stop offset="1" stop-color="#FE375C" stop-opacity="0"/>
</linearGradient>
<linearGradient id="paint7_linear_124_1275" x1="39.3788" y1="25.7407" x2="37.3211" y2="10.6351" gradientUnits="userSpaceOnUse">
<stop offset="0.160784" stop-color="#FF5573"/>
<stop offset="1" stop-color="#FF5573" stop-opacity="0"/>
</linearGradient>
</defs>
</svg>
