<svg width="106" height="106" viewBox="0 0 106 106" fill="none" xmlns="http://www.w3.org/2000/svg">
<path d="M3 100C1.34315 100 0 101.343 0 103C0 104.657 1.34315 106 3 106V100ZM103 106C104.657 106 106 104.657 106 103C106 101.343 104.657 100 103 100V106ZM53 3L54.1142 0.21457C53.1899 -0.155139 52.1424 -0.0422916 51.3181 0.515798C50.4938 1.07389 50 2.00453 50 3H53ZM78 3H81C81 2.00453 80.5062 1.07389 79.6819 0.515798C78.8576 -0.0422916 77.8101 -0.155139 76.8858 0.21457L78 3ZM78 18L79.1142 20.7854C80.2532 20.3298 81 19.2267 81 18H78ZM50 33C50 34.6569 51.3431 36 53 36C54.6569 36 56 34.6569 56 33H50ZM13 103H10C10 104.657 11.3431 106 13 106V103ZM93 103V106C94.6569 106 96 104.657 96 103H93ZM15.9 50C14.2431 50 12.9 51.3431 12.9 53C12.9 54.6569 14.2431 56 15.9 56V50ZM90.1 56C91.7569 56 93.1 54.6569 93.1 53C93.1 51.3431 91.7569 50 90.1 50V56ZM3 103V106H103V103V100H3V103ZM53 3L51.8858 5.78543C60.6011 9.27152 70.3989 9.27152 79.1142 5.78543L78 3L76.8858 0.21457C69.6011 3.12848 61.3989 3.12848 54.1142 0.21457L53 3ZM78 3H75V18H78H81V3H78ZM78 18L76.8858 15.2146C69.6011 18.1285 61.3989 18.1285 54.1142 15.2146L53 18L51.8858 20.7854C60.6011 24.2715 70.3989 24.2715 79.1142 20.7854L78 18ZM53 18H56V3H53H50V18H53ZM53 18H50V33H53H56V18H53ZM78 33V30H28V33V36H78V33ZM28 33V30C22.5376 30 17.8897 31.3676 14.6287 34.6287C11.3676 37.8897 10 42.5376 10 48H13H16C16 43.4624 17.1324 40.6103 18.8713 38.8713C20.6103 37.1324 23.4624 36 28 36V33ZM13 48H10V103H13H16V48H13ZM13 103V106H93V103V100H13V103ZM93 103H96V48H93H90V103H93ZM93 48H96C96 42.5376 94.6324 37.8897 91.3713 34.6287C88.1103 31.3676 83.4624 30 78 30V33V36C82.5376 36 85.3897 37.1324 87.1287 38.8713C88.8676 40.6103 90 43.4624 90 48H93ZM15.9 53V56H90.1V53V50H15.9V53ZM32.95 53H29.95V103H32.95H35.95V53H32.95ZM52.95 53H49.95V103H52.95H55.95V53H52.95ZM72.95 53H69.95V103H72.95H75.95V53H72.95Z" fill="#387BDB"/>
</svg>
