<svg width="106" height="107" viewBox="0 0 106 107" fill="none" xmlns="http://www.w3.org/2000/svg">
<path d="M94.9 95.2751C100.5 89.6251 103 80.8751 103 68.3751V38.3751C103 33.1751 102.55 28.6751 101.65 24.7251M94.9 95.2751L63 63.3751M94.9 95.2751C89.25 100.875 80.5002 103.375 68.0002 103.375H38.0002C32.8002 103.375 28.2999 102.925 24.3499 102.025M63 63.3751L101.65 24.7251M63 63.3751L24.3499 102.025M101.65 24.7251L24.3499 102.025M101.65 24.7251C98.2001 9.6751 87.8 3.375 68 3.375H38C13 3.375 3 13.375 3 38.375V68.375C3 88.175 9.29995 98.575 24.3499 102.025M38.473 36.8748H38.5179M24.2001 33.2749C27.6001 18.6249 49.6001 18.6249 53.0001 33.2749C54.9501 41.8749 49.5501 49.1749 44.8001 53.6749C41.3501 56.9749 35.9002 56.9749 32.4002 53.6749C27.6502 49.1749 22.2001 41.8749 24.2001 33.2749Z" stroke="#E57620" stroke-width="6" stroke-miterlimit="10" stroke-linecap="round" stroke-linejoin="round"/>
</svg>
