<svg width="100" height="100" viewBox="0 0 100 100" fill="none" xmlns="http://www.w3.org/2000/svg">
<path d="M72.0335 85.3023H27.9665C24.2904 85.3023 21.6379 85.1628 19.3578 84.8372C3.21079 83.0698 0 73.3953 0 57.3488V27.9535C0 11.907 3.16426 2.23247 19.4509 0.465023C21.6845 0.139442 24.3369 0 27.9665 0H72.0335C75.6631 0 78.3155 0.139442 80.6422 0.465023C96.8357 2.23247 100 11.907 100 27.9535V57.3488C100 73.3953 96.8357 83.0698 80.5491 84.8372C78.3621 85.1628 75.7097 85.3023 72.0335 85.3023ZM27.9199 6.97674C24.6161 6.97674 22.2429 7.11642 20.2885 7.39549C10.2373 8.51177 6.93345 11.628 6.93345 28.0001V57.3953C6.93345 73.7209 10.2374 76.8837 20.1955 77.9535C22.2429 78.2326 24.6161 78.3721 27.9665 78.3721H72.0335C75.3839 78.3721 77.7106 78.2326 79.665 77.9535C89.7162 76.8372 93.02 73.7209 93.02 57.3488V27.9535C93.02 11.628 89.7162 8.46526 79.7581 7.39549C77.6641 7.11642 75.3374 6.97674 71.987 6.97674H27.9199Z" fill="#2CAE28"/>
<path d="M74.4547 36.3735H57.3304C55.4226 36.3735 53.8405 34.7921 53.8405 32.8852C53.8405 30.9782 55.4226 29.3968 57.3304 29.3968H74.4547C76.3625 29.3968 77.9447 30.9782 77.9447 32.8852C77.9447 34.7921 76.4091 36.3735 74.4547 36.3735Z" fill="#2CAE28"/>
<path d="M40.6711 37.5363C38.1118 37.5363 36.0178 35.4433 36.0178 32.8852C36.0178 30.327 38.0652 28.234 40.6711 28.234C43.2304 28.234 45.3244 30.327 45.3244 32.8852C45.3244 35.4433 43.277 37.5363 40.6711 37.5363Z" fill="#2CAE28"/>
<path d="M26.0136 37.5363C23.4543 37.5363 21.3603 35.4433 21.3603 32.8852C21.3603 30.327 23.4077 28.234 26.0136 28.234H26.0601C28.6194 28.234 30.7134 30.327 30.7134 32.8852C30.7134 35.4433 28.5729 37.5363 26.0136 37.5363Z" fill="#2CAE28"/>
<path d="M74.4551 63.3019H25.5489C23.641 63.3019 22.0123 61.7205 22.0123 59.8135C22.0123 57.9065 23.5479 56.3251 25.4558 56.3251H74.4551C76.363 56.3251 77.9451 57.9065 77.9451 59.8135C77.9451 61.7205 76.4095 63.3019 74.4551 63.3019Z" fill="#2CAE28"/>
<path d="M73.2443 100H26.7111C24.8033 100 23.2211 98.4186 23.2211 96.5116C23.2211 94.6046 24.8033 93.0233 26.7111 93.0233H73.2443C75.1522 93.0233 76.7343 94.6046 76.7343 96.5116C76.7343 98.4186 75.1522 100 73.2443 100Z" fill="#2CAE28"/>
</svg>
